<mxfile host="app.diagrams.net" modified="2023-01-01T07:56:44.522Z" agent="5.0 (Windows NT 10.0; Win64; x64) AppleWebKit/537.36 (KHTML, like Gecko) Chrome/108.0.0.0 Safari/537.36" version="20.7.4" etag="j030Css4hlSw_GZiRELd" type="github">
  <diagram id="6k260k0CDHTVNB8XZ6c-" name="第 1 页">
    <mxGraphModel dx="1639" dy="645" grid="1" gridSize="10" guides="1" tooltips="1" connect="1" arrows="1" fold="1" page="1" pageScale="1" pageWidth="827" pageHeight="1169" math="0" shadow="0">
      <root>
        <mxCell id="0" />
        <mxCell id="1" parent="0" />
        <mxCell id="aVlI6Zu-1mu2gPW5aSF_-3" value="" style="edgeStyle=orthogonalEdgeStyle;rounded=0;orthogonalLoop=1;jettySize=auto;html=1;" edge="1" parent="1" source="aVlI6Zu-1mu2gPW5aSF_-1" target="aVlI6Zu-1mu2gPW5aSF_-2">
          <mxGeometry relative="1" as="geometry" />
        </mxCell>
        <mxCell id="aVlI6Zu-1mu2gPW5aSF_-1" value="开始" style="strokeWidth=2;html=1;shape=mxgraph.flowchart.start_1;whiteSpace=wrap;" vertex="1" parent="1">
          <mxGeometry x="314" y="80" width="100" height="60" as="geometry" />
        </mxCell>
        <mxCell id="aVlI6Zu-1mu2gPW5aSF_-5" value="" style="edgeStyle=orthogonalEdgeStyle;rounded=0;orthogonalLoop=1;jettySize=auto;html=1;entryX=0.5;entryY=0;entryDx=0;entryDy=0;" edge="1" parent="1" source="aVlI6Zu-1mu2gPW5aSF_-2" target="aVlI6Zu-1mu2gPW5aSF_-4">
          <mxGeometry relative="1" as="geometry">
            <mxPoint x="330" y="550" as="targetPoint" />
            <Array as="points">
              <mxPoint x="260" y="215" />
            </Array>
          </mxGeometry>
        </mxCell>
        <mxCell id="aVlI6Zu-1mu2gPW5aSF_-12" value="" style="edgeStyle=orthogonalEdgeStyle;rounded=0;orthogonalLoop=1;jettySize=auto;html=1;" edge="1" parent="1" source="aVlI6Zu-1mu2gPW5aSF_-2" target="aVlI6Zu-1mu2gPW5aSF_-11">
          <mxGeometry relative="1" as="geometry" />
        </mxCell>
        <mxCell id="aVlI6Zu-1mu2gPW5aSF_-2" value="签协议" style="rhombus;whiteSpace=wrap;html=1;strokeWidth=2;" vertex="1" parent="1">
          <mxGeometry x="324" y="180" width="80" height="70" as="geometry" />
        </mxCell>
        <mxCell id="aVlI6Zu-1mu2gPW5aSF_-4" value="综评无效" style="ellipse;whiteSpace=wrap;html=1;strokeWidth=2;" vertex="1" parent="1">
          <mxGeometry x="220" y="390" width="80" height="45" as="geometry" />
        </mxCell>
        <mxCell id="aVlI6Zu-1mu2gPW5aSF_-7" value="否" style="text;html=1;align=center;verticalAlign=middle;resizable=0;points=[];autosize=1;strokeColor=none;fillColor=none;" vertex="1" parent="1">
          <mxGeometry x="274" y="180" width="40" height="30" as="geometry" />
        </mxCell>
        <mxCell id="aVlI6Zu-1mu2gPW5aSF_-10" value="是" style="text;html=1;align=center;verticalAlign=middle;resizable=0;points=[];autosize=1;strokeColor=none;fillColor=none;" vertex="1" parent="1">
          <mxGeometry x="374" y="250" width="40" height="30" as="geometry" />
        </mxCell>
        <mxCell id="aVlI6Zu-1mu2gPW5aSF_-14" style="edgeStyle=orthogonalEdgeStyle;rounded=0;orthogonalLoop=1;jettySize=auto;html=1;entryX=0.5;entryY=0;entryDx=0;entryDy=0;" edge="1" parent="1" source="aVlI6Zu-1mu2gPW5aSF_-11" target="aVlI6Zu-1mu2gPW5aSF_-4">
          <mxGeometry relative="1" as="geometry">
            <Array as="points">
              <mxPoint x="260" y="315" />
            </Array>
          </mxGeometry>
        </mxCell>
        <mxCell id="aVlI6Zu-1mu2gPW5aSF_-29" style="edgeStyle=orthogonalEdgeStyle;rounded=0;orthogonalLoop=1;jettySize=auto;html=1;exitX=0.5;exitY=1;exitDx=0;exitDy=0;entryX=0.5;entryY=0;entryDx=0;entryDy=0;" edge="1" parent="1" source="aVlI6Zu-1mu2gPW5aSF_-11" target="aVlI6Zu-1mu2gPW5aSF_-27">
          <mxGeometry relative="1" as="geometry" />
        </mxCell>
        <mxCell id="aVlI6Zu-1mu2gPW5aSF_-11" value="总分是否过线" style="rhombus;whiteSpace=wrap;html=1;strokeWidth=2;" vertex="1" parent="1">
          <mxGeometry x="311" y="280" width="106" height="70" as="geometry" />
        </mxCell>
        <mxCell id="aVlI6Zu-1mu2gPW5aSF_-13" value="否" style="text;html=1;align=center;verticalAlign=middle;resizable=0;points=[];autosize=1;strokeColor=none;fillColor=none;" vertex="1" parent="1">
          <mxGeometry x="300" y="270" width="40" height="30" as="geometry" />
        </mxCell>
        <mxCell id="aVlI6Zu-1mu2gPW5aSF_-21" value="" style="edgeStyle=orthogonalEdgeStyle;rounded=0;orthogonalLoop=1;jettySize=auto;html=1;" edge="1" parent="1" source="aVlI6Zu-1mu2gPW5aSF_-15" target="aVlI6Zu-1mu2gPW5aSF_-20">
          <mxGeometry relative="1" as="geometry" />
        </mxCell>
        <mxCell id="aVlI6Zu-1mu2gPW5aSF_-24" style="edgeStyle=orthogonalEdgeStyle;rounded=0;orthogonalLoop=1;jettySize=auto;html=1;entryX=0;entryY=0.5;entryDx=0;entryDy=0;" edge="1" parent="1" source="aVlI6Zu-1mu2gPW5aSF_-15" target="aVlI6Zu-1mu2gPW5aSF_-23">
          <mxGeometry relative="1" as="geometry" />
        </mxCell>
        <mxCell id="aVlI6Zu-1mu2gPW5aSF_-32" style="edgeStyle=orthogonalEdgeStyle;rounded=0;orthogonalLoop=1;jettySize=auto;html=1;entryX=1;entryY=0.5;entryDx=0;entryDy=0;" edge="1" parent="1" source="aVlI6Zu-1mu2gPW5aSF_-15" target="aVlI6Zu-1mu2gPW5aSF_-31">
          <mxGeometry relative="1" as="geometry" />
        </mxCell>
        <mxCell id="aVlI6Zu-1mu2gPW5aSF_-15" value="高考成绩" style="rhombus;whiteSpace=wrap;html=1;strokeWidth=2;" vertex="1" parent="1">
          <mxGeometry x="330" y="450" width="80" height="60" as="geometry" />
        </mxCell>
        <mxCell id="aVlI6Zu-1mu2gPW5aSF_-17" value="是" style="text;html=1;align=center;verticalAlign=middle;resizable=0;points=[];autosize=1;strokeColor=none;fillColor=none;" vertex="1" parent="1">
          <mxGeometry x="370" y="335" width="40" height="30" as="geometry" />
        </mxCell>
        <mxCell id="aVlI6Zu-1mu2gPW5aSF_-20" value="优先进入志愿专业" style="whiteSpace=wrap;html=1;strokeWidth=2;" vertex="1" parent="1">
          <mxGeometry x="310" y="540" width="120" height="40" as="geometry" />
        </mxCell>
        <mxCell id="aVlI6Zu-1mu2gPW5aSF_-22" value="高" style="text;html=1;align=center;verticalAlign=middle;resizable=0;points=[];autosize=1;strokeColor=none;fillColor=none;" vertex="1" parent="1">
          <mxGeometry x="366" y="505" width="40" height="30" as="geometry" />
        </mxCell>
        <mxCell id="aVlI6Zu-1mu2gPW5aSF_-23" value="志愿优先级降低" style="whiteSpace=wrap;html=1;strokeWidth=2;" vertex="1" parent="1">
          <mxGeometry x="466" y="460" width="110" height="40" as="geometry" />
        </mxCell>
        <mxCell id="aVlI6Zu-1mu2gPW5aSF_-25" value="低" style="text;html=1;align=center;verticalAlign=middle;resizable=0;points=[];autosize=1;strokeColor=none;fillColor=none;" vertex="1" parent="1">
          <mxGeometry x="406" y="450" width="40" height="30" as="geometry" />
        </mxCell>
        <mxCell id="aVlI6Zu-1mu2gPW5aSF_-30" style="edgeStyle=orthogonalEdgeStyle;rounded=0;orthogonalLoop=1;jettySize=auto;html=1;entryX=0.5;entryY=0;entryDx=0;entryDy=0;" edge="1" parent="1" source="aVlI6Zu-1mu2gPW5aSF_-27" target="aVlI6Zu-1mu2gPW5aSF_-15">
          <mxGeometry relative="1" as="geometry" />
        </mxCell>
        <mxCell id="aVlI6Zu-1mu2gPW5aSF_-27" value="被南大锁档" style="whiteSpace=wrap;html=1;strokeWidth=2;" vertex="1" parent="1">
          <mxGeometry x="310" y="380" width="110" height="40" as="geometry" />
        </mxCell>
        <mxCell id="aVlI6Zu-1mu2gPW5aSF_-31" value="也只能来南大，亏了（除非有强基）" style="whiteSpace=wrap;html=1;strokeWidth=2;" vertex="1" parent="1">
          <mxGeometry x="184" y="450" width="90" height="60" as="geometry" />
        </mxCell>
        <mxCell id="aVlI6Zu-1mu2gPW5aSF_-33" value="特别高" style="text;html=1;align=center;verticalAlign=middle;resizable=0;points=[];autosize=1;strokeColor=none;fillColor=none;" vertex="1" parent="1">
          <mxGeometry x="280" y="445" width="60" height="30" as="geometry" />
        </mxCell>
      </root>
    </mxGraphModel>
  </diagram>
</mxfile>
